# xmcd
#
# Track frame offsets: 
#        150
#        18251
#        36234
#
# Disc length: 741 seconds
#
# Revision: 3
# Processed by: cddbd v1.5.2PL0 Copyright (c) Steve Scherf et al.
# Submitted via: ExactAudioCopy v0.95b4
#
DISCID=1a02e303
DTITLE=Anne McCue - Stupid
DYEAR=2004
DGENRE=Blues
TTITLE0=Stupid
TTITLE1=Voodoo Child (Slight Return)
TTITLE2=Fitzroy Blues
EXTD=YEAR: 2004
EXTT0=
EXTT1=
EXTT2=
PLAYORDER=
